<svg xmlns="http://www.w3.org/2000/svg"
     height="512"
     width="512"
     viewBox="0 0 512 512">
    <path fill-rule="evenodd"
          fill="#077"
          d="m346.64 6.479c-10.282-17.883 24.58 3.7279 44.526 35.739 36.048 57.85 23.325 116.68-22.903 153.73-11.61 9.3043-26.204 18.388-42.931 25.713-7.6437 2.1911-41.942-4.1639-25.066-12.064 83.55-39.11 114.28-127.46 46.37-203.12zm-91.1 505.52c-73.023 0-132.24-63.825-132.24-142.53 0-63.76 38.873-117.76 92.462-135.96-23.704-5.5083-52.593-22.007-72.032-37.589-46.229-37.04-58.95-95.87-22.9-153.72 19.94-32.011 54.81-53.621 44.53-35.738-39.17 43.638-45.53 91.497-27.86 131.69 28.686 65.257 94.863 73.956 155.36 94.535 54.807 17.399 94.928 72.074 94.928 136.77 0 78.7-59.22 142.53-132.24 142.53zm0-39.591c-62.76 0-119-41.218-119-102.93 0-61.715 56.243-111.77 119-111.77 62.76 0 119 50.05 119 111.77 0 61.717-56.238 102.93-119 102.93z"/>
</svg>
